# xmcd CD database file
#
# Track frame offsets:
#	150
#	16545
#	26020
#	40070
#	52470
#	65395
#	76670
#	90370
#	103845
#	115495
#	134545
#	145070
#	161995
#	174495
#	194845
#	208520
#	226695
#	253345
#	263920
#	279645
#	291450
#	303920
#
# Disc length: 4214 seconds
#
# Revision: 1
# Processed by: cddbd v1.5.1PL0 Copyright (c) Steve Scherf et al.
# Submitted via: CDex 1.51
#
DISCID=45107416
DTITLE=Various Artist - 60's LOVE and PEACE Vol.1
DYEAR=1993
DGENRE=Oldies
TTITLE0=Unchained Melody  -  The Rigthteous Brothers
TTITLE1=Yesterday  -  The Beatles
TTITLE2=The Sounds of Silence  -  Simon and Garfunkel
TTITLE3=My Girl  -  The Temptations
TTITLE4=When A Man Loves A Woman  -  Percy Sledge
TTITLE5=Save the Last Dance for Me  -  The Drifters
TTITLE6=Can't Help Falling In Love  -  Elvis Presley
TTITLE7=Oh, Pretty Women  -  Roy Orbison
TTITLE8=Where Did Our Love Go  -  Diana Ross and Supremes
TTITLE9=I Can't Stop Loving You  -  Ray Charles
TTITLE10=Help!  -  The Beatles
TTITLE11=Satisfaction  -  The Roling Stones
TTITLE12=I'm A Believer  -  The Monkees
TTITLE13=House of the Rising Sun  -  The Animals
TTITLE14=Stand By Me  -  Ben E. King
TTITLE15=A Whiter Shade of Pale  - Procol Harum
TTITLE16=Danny Boy  -  Harry Belafonte
TTITLE17=What A Wonderful World  -  Louis Armstrong
TTITLE18=Mona Lisa  -  Nat King Cole
TTITLE19=Only You  -  The Platters
TTITLE20=Moon River  -  Andy Williams
TTITLE21=If You Love Me  -  Brende Lee
EXTD=YEAR: 1993
EXTT0=
EXTT1=
EXTT2=
EXTT3=
EXTT4=
EXTT5=
EXTT6=
EXTT7=
EXTT8=
EXTT9=
EXTT10=
EXTT11=
EXTT12=
EXTT13=
EXTT14=
EXTT15=
EXTT16=
EXTT17=
EXTT18=
EXTT19=
EXTT20=
EXTT21=
PLAYORDER=
